<?xml version="1.0" encoding="utf-8"?>
<!-- Generator: Adobe Illustrator 19.0.0, SVG Export Plug-In . SVG Version: 6.00 Build 0)  -->
<svg version="1.1" id="Layer_1" xmlns="http://www.w3.org/2000/svg" xmlns:xlink="http://www.w3.org/1999/xlink" x="0px" y="0px"
	 viewBox="0 0 20 19.1" style="enable-background:new 0 0 20 19.1;" xml:space="preserve">
<style type="text/css">
	.st0{fill-rule:evenodd;clip-rule:evenodd;}
</style>
<g>
	<path class="st0" d="M4.5,19.1V6.2H0.3v12.9H4.5L4.5,19.1z M2.4,4.5c1.5,0,2.4-1,2.4-2.2C4.8,1,3.9,0,2.4,0S0,1,0,2.2
		C0,3.5,0.9,4.5,2.4,4.5L2.4,4.5L2.4,4.5z"/>
	<path class="st0" d="M6.9,19.1h4.3v-7.2c0-0.4,0-0.8,0.1-1c0.3-0.8,1-1.6,2.2-1.6c1.6,0,2.2,1.2,2.2,2.9v6.9H20v-7.4
		c0-4-2.1-5.8-4.9-5.8c-2.3,0-3.3,1.3-3.9,2.2h0V6.2H6.9C7,7.4,6.9,19.1,6.9,19.1L6.9,19.1z"/>
</g>
</svg>
