<?xml version="1.0" encoding="utf-8"?>
<!-- Generator: Adobe Illustrator 19.0.0, SVG Export Plug-In . SVG Version: 6.00 Build 0)  -->
<svg version="1.1" id="Layer_1" xmlns="http://www.w3.org/2000/svg" xmlns:xlink="http://www.w3.org/1999/xlink" x="0px" y="0px"
	 viewBox="0 0 20 15.4" style="enable-background:new 0 0 20 15.4;" xml:space="preserve">
<path d="M20,1.8c-0.7,0.3-1.5,0.5-2.4,0.6c0.8-0.5,1.5-1.2,1.8-2.1c-0.8,0.4-1.7,0.8-2.6,0.9C16.1,0.5,15,0,13.8,0
	c-2.3,0-4.1,1.7-4.1,3.9c0,0.3,0,0.6,0.1,0.9C6.4,4.6,3.4,3.1,1.4,0.7C1,1.3,0.8,2,0.8,2.7c0,1.3,0.7,2.5,1.8,3.2
	C2,5.9,1.4,5.7,0.8,5.4c0,0,0,0,0,0c0,1.9,1.4,3.4,3.3,3.8C3.8,9.4,3.4,9.4,3,9.4c-0.3,0-0.5,0-0.8-0.1c0.5,1.5,2,2.7,3.8,2.7
	c-1.4,1-3.2,1.7-5.1,1.7c-0.3,0-0.7,0-1-0.1c1.8,1.1,4,1.7,6.3,1.7c7.5,0,11.7-5.9,11.7-11c0-0.2,0-0.3,0-0.5
	C18.8,3.3,19.4,2.6,20,1.8z"/>
</svg>
