<?xml version="1.0" encoding="utf-8"?>
<!-- Generator: Adobe Illustrator 19.0.0, SVG Export Plug-In . SVG Version: 6.00 Build 0)  -->
<svg version="1.1" id="Layer_1" xmlns="http://www.w3.org/2000/svg" xmlns:xlink="http://www.w3.org/1999/xlink" x="0px" y="0px"
	 viewBox="156 356 20 15.4" style="enable-background:new 156 356 20 15.4;" xml:space="preserve">
<g id="_x35_151e0c8492e5103c096af88a5006e1e">
	<path id="XMLID_1_" d="M156.3,364.1c0.9-0.2,2.1-0.5,4.2-0.6c-0.1-0.1-0.1-0.2-0.2-0.4c-0.8,0-3.3,0.1-4.2,0.3c0,0,0,0,0,0
		c0,0-0.1,0-0.1,0c0,0,0-0.1,0-0.1c0.9-0.2,3.3-0.3,4.2-0.3c-0.2-0.6-0.3-1.2-0.3-2c0-1.3,0.4-1.8,1-2.5c-0.4-1.5,0.2-2.5,0.2-2.5
		s0.9-0.2,2.5,1c0.9-0.4,3.3-0.4,4.5-0.1c0.7-0.5,2-1.1,2.5-0.9c0.1,0.2,0.4,0.9,0.2,2.3c0.2,0.3,1.1,1,1.1,2.9
		c0,0.7-0.1,1.3-0.2,1.8c2.2,0,3.5,0.2,4.3,0.3c0,0,0.1,0,0.1,0.1c0,0,0,0.1-0.1,0.1c0,0,0,0,0,0c-0.9-0.2-2.2-0.3-4.3-0.3
		c0,0.1-0.1,0.2-0.1,0.4c0.7,0,2.8,0.1,4.5,0.6c0,0,0.1,0,0,0.1c0,0,0,0-0.1,0c0,0,0,0,0,0c-1.7-0.5-3.8-0.6-4.5-0.6
		c-0.6,1.3-1.8,1.8-3.8,2c0.6,0.4,0.8,0.9,0.8,2.3c0,1.4,0,1.6,0,1.9c0,0.5,0.8,0.8,0.7,0.9c0,0.2-0.6,0.1-0.9,0
		c-0.8-0.3-0.7-1-0.7-1l0-1.9c0,0,0.1-1-0.3-1c0,0.2,0,2.3,0,3c0,0.7,0.5,0.9,0.5,1.1c0,0.4-0.8,0-1.1-0.3c-0.4-0.4-0.4-1.2-0.3-1.9
		c0-0.6,0-2.1,0-2.1l-0.3,0c0,0,0.1,3.1-0.1,3.6c-0.3,0.7-1.3,1-1.3,0.6c0-0.2,0.2-0.2,0.4-0.6c0.1-0.4,0.1-3.6,0.1-3.6
		s-0.3,0.2-0.3,0.8c0,0.3,0,1.8,0,2.3c0,0.6-0.8,0.9-1.2,0.9c-0.2,0-0.4,0-0.4-0.1c0-0.3,0.7-0.4,0.7-1c0-0.5,0-1.7,0-1.7
		s-0.4,0.1-0.9,0.1c-1.4,0-1.8-0.9-2-1.3c-0.3-0.6-0.6-0.9-1-1.2c-0.2-0.1-0.3-0.3,0-0.4c1.2-0.2,1.5,1.4,2.3,1.6
		c0.6,0.2,1.3,0.1,1.7-0.1c0-0.5,0.4-0.9,0.7-1.1c-2-0.2-3.2-0.9-3.9-2c-2.1,0.1-3.3,0.4-4.2,0.6c-0.1,0-0.1,0-0.2,0c0,0,0,0,0,0
		c0,0-0.1,0-0.1,0c0,0,0-0.1,0-0.1C156.1,364.1,156.2,364.1,156.3,364.1z"/>
</g>
</svg>
