<?xml version="1.0" encoding="utf-8"?>
<!-- Generator: Adobe Illustrator 19.0.0, SVG Export Plug-In . SVG Version: 6.00 Build 0)  -->
<svg version="1.1" id="text_version_two" xmlns="http://www.w3.org/2000/svg" xmlns:xlink="http://www.w3.org/1999/xlink" x="0px"
	 y="0px" viewBox="-223 427 160 171" style="enable-background:new -223 427 160 171;" xml:space="preserve">
<g>
	<path d="M-174.4,537.2c-4.4-0.5-14.7,6.1-24.9,16.2c-11.7,11.5-15.8,26.3-15.8,26.3s14.8-4,26.4-15.5
		c10.2-10.1,16.9-20.4,16.4-24.8l50.1-49.6c6.6,6.1,15,9.5,24,9.5c2.2,0,4.4-0.2,6.5-0.6c7-1.3,13.5-4.6,18.7-9.7
		c0.6-0.6,0.6-1.6,0-2.2c-0.6-0.6-1.6-0.6-2.2,0c-6.2,6.1-14.3,9.4-23,9.4c-2.8,0-5.6-0.4-8.3-1.2c1.2,0,2.4-0.1,3.6-0.3
		c4.5-0.8,8.6-2.9,11.9-6.2c0.6-0.6,0.6-1.6,0-2.2c-0.6-0.6-1.6-0.6-2.2,0c-3.7,3.6-8.6,5.6-13.7,5.6c-5.2,0-10-2.1-13.7-5.8
		c-3.6-3.7-5.6-8.6-5.6-13.7c0-5.2,2.1-10,5.8-13.7c0.6-0.6,0.6-1.6,0-2.2c-0.6-0.6-1.6-0.6-2.2,0c-4.2,4.1-6.5,9.5-6.7,15.4
		c-2.8-10.8,0.1-22.8,8.6-31.2c0.6-0.6,0.6-1.6,0-2.2s-1.6-0.6-2.2,0c-13.6,13.5-14,35.2-1.3,49.3L-174.4,537.2z"/>
</g>
</svg>
