<?xml version="1.0" encoding="utf-8"?>
<!-- Generator: Adobe Illustrator 19.1.0, SVG Export Plug-In . SVG Version: 6.00 Build 0)  -->
<svg version="1.1" id="text_version_two" xmlns="http://www.w3.org/2000/svg" xmlns:xlink="http://www.w3.org/1999/xlink" x="0px"
	 y="0px" viewBox="0 0 575.971 170.991" style="enable-background:new 0 0 575.971 170.991;" xml:space="preserve">
<g>
	<path d="M175.067,9.708c0-1.369,1.122-2.49,2.43-2.49h16.141c4.985,0,8.913,1.435,11.405,3.865
		c1.809,1.867,2.806,4.173,2.806,6.979v0.127c0,5.668-3.492,8.594-6.919,10.092c5.174,1.558,9.346,4.553,9.346,10.535v0.122
		c0,7.48-6.291,11.904-15.827,11.904h-16.953c-1.309,0-2.43-1.122-2.43-2.49V9.708z M192.828,26.663
		c5.919,0,10.036-2.679,10.036-7.791v-0.127c0-4.297-3.429-7.103-9.665-7.103h-13.27v15.021H192.828z M194.575,46.418
		c6.605,0,10.717-2.929,10.717-7.789v-0.127c0-4.736-3.988-7.475-11.59-7.475H179.93v15.391H194.575z"/>
	<path d="M217.408,47.599l17.696-38.697c0.623-1.371,1.558-2.183,3.116-2.183h0.251c1.493,0,2.49,0.812,3.053,2.183l17.701,38.637
		c0.185,0.436,0.309,0.872,0.309,1.248c0,1.308-1.059,2.366-2.368,2.366c-1.182,0-1.994-0.808-2.432-1.807l-4.549-10.032h-23.932
		l-4.549,10.159c-0.439,1.059-1.246,1.68-2.368,1.68c-1.246,0-2.243-0.995-2.243-2.243
		C217.094,48.539,217.154,48.103,217.408,47.599z M248.254,34.828L238.22,12.514l-10.032,22.314H248.254z"/>
	<path d="M264.796,29.153v-0.12c0-12.342,9.222-22.563,22.062-22.563c7.043,0,11.527,2.306,15.58,5.67
		c0.501,0.436,0.997,1.119,0.997,1.994c0,1.309-1.184,2.43-2.49,2.43c-0.688,0-1.251-0.309-1.622-0.559
		c-3.367-2.993-7.168-4.987-12.527-4.987c-9.658,0-16.891,7.853-16.891,17.888v0.127c0,10.092,7.293,18.008,16.891,18.008
		c5.421,0,9.224-1.872,12.963-5.297c0.374-0.376,0.932-0.685,1.558-0.685c1.246,0,2.368,1.122,2.368,2.37
		c0,0.746-0.374,1.371-0.81,1.74c-4.302,3.928-9.037,6.42-16.203,6.42C274.083,51.59,264.796,41.682,264.796,29.153z"/>
	<path d="M312.747,9.398c0-1.371,1.122-2.492,2.432-2.492c1.368,0,2.49,1.122,2.49,2.492V33.27l24.866-25.489
		c0.563-0.503,1.122-0.875,1.932-0.875c1.309,0,2.368,1.184,2.368,2.432c0,0.686-0.309,1.242-0.81,1.745l-15.453,15.331
		l16.575,20.44c0.439,0.563,0.685,1.062,0.685,1.807c0,1.308-1.122,2.492-2.49,2.492c-0.937,0-1.56-0.499-1.994-1.122l-16.27-20.253
		l-9.409,9.409v9.473c0,1.371-1.122,2.492-2.49,2.492c-1.311,0-2.432-1.122-2.432-2.492V9.398z"/>
	<path d="M355.834,32.585V9.398c0-1.371,1.126-2.492,2.432-2.492c1.373,0,2.492,1.122,2.492,2.492v22.873
		c0,9.411,5.049,14.71,13.339,14.71c8.04,0,13.15-4.86,13.15-14.396V9.398c0-1.371,1.122-2.492,2.492-2.492
		c1.309,0,2.428,1.122,2.428,2.492v22.81c0,12.711-7.288,19.318-18.195,19.318C363.191,51.527,355.834,44.92,355.834,32.585z"/>
	<path d="M403.85,9.708c0-1.369,1.122-2.49,2.432-2.49h13.898c9.845,0,16.325,5.236,16.325,13.838v0.122
		c0,9.413-7.851,14.274-17.138,14.274h-10.593v13.21c0,1.371-1.122,2.492-2.492,2.492c-1.311,0-2.432-1.122-2.432-2.492V9.708z
		 M419.554,30.96c7.23,0,11.966-3.861,11.966-9.596v-0.127c0-6.231-4.673-9.469-11.714-9.469h-11.031V30.96H419.554z"/>
	<g>
		<path d="M175.635,70.495c0-1.369,1.122-2.49,2.432-2.49h13.895c9.847,0,16.328,5.237,16.328,13.838v0.122
			c0,9.413-7.851,14.274-17.137,14.274h-10.595v13.21c0,1.371-1.122,2.492-2.49,2.492c-1.311,0-2.432-1.122-2.432-2.492V70.495z
			 M191.337,91.747c7.233,0,11.968-3.861,11.968-9.596v-0.127c0-6.231-4.676-9.469-11.714-9.469h-11.033v19.192H191.337z"/>
		<path d="M210.556,108.386l17.696-38.697c0.623-1.371,1.56-2.183,3.115-2.183h0.254c1.491,0,2.488,0.812,3.051,2.183l17.701,38.637
			c0.185,0.436,0.309,0.872,0.309,1.249c0,1.308-1.057,2.365-2.368,2.365c-1.182,0-1.994-0.808-2.432-1.807l-4.546-10.032h-23.932
			l-4.551,10.159c-0.436,1.059-1.246,1.68-2.368,1.68c-1.246,0-2.243-0.995-2.243-2.243
			C210.242,109.326,210.305,108.89,210.556,108.386z M241.402,95.615l-10.034-22.314l-10.03,22.314H241.402z"/>
		<path d="M262.121,70.495c0-1.369,1.122-2.49,2.432-2.49h16.325c5.359,0,9.66,1.618,12.402,4.364
			c2.118,2.116,3.365,5.169,3.365,8.601v0.122c0,7.17-4.86,11.341-11.654,12.649l10.846,13.96c0.498,0.566,0.808,1.122,0.808,1.807
			c0,1.311-1.246,2.432-2.488,2.432c-1.002,0-1.749-0.558-2.308-1.306L279.573,94.68h-12.527v14.768
			c0,1.371-1.122,2.492-2.492,2.492c-1.311,0-2.432-1.122-2.432-2.492V70.495z M280.445,90.257c6.545,0,11.216-3.369,11.216-8.977
			v-0.127c0-5.359-4.112-8.597-11.151-8.597h-13.464v17.701H280.445z"/>
		<path d="M304.525,108.386l17.701-38.697c0.623-1.371,1.555-2.183,3.116-2.183h0.249c1.496,0,2.492,0.812,3.051,2.183
			l17.701,38.637c0.189,0.436,0.314,0.872,0.314,1.249c0,1.308-1.062,2.365-2.372,2.365c-1.182,0-1.994-0.808-2.428-1.807
			l-4.551-10.032h-23.932l-4.551,10.159c-0.434,1.059-1.242,1.68-2.363,1.68c-1.246,0-2.243-0.995-2.243-2.243
			C304.216,109.326,304.276,108.89,304.525,108.386z M335.375,95.615l-10.034-22.314l-10.034,22.314H335.375z"/>
		<path d="M351.913,89.94v-0.12c0-12.342,9.227-22.563,22.062-22.563c7.043,0,11.53,2.306,15.582,5.67
			c0.498,0.436,0.997,1.119,0.997,1.994c0,1.308-1.186,2.43-2.492,2.43c-0.688,0-1.246-0.309-1.62-0.558
			c-3.369-2.993-7.168-4.987-12.527-4.987c-9.66,0-16.893,7.854-16.893,17.888v0.127c0,10.092,7.293,18.008,16.893,18.008
			c5.423,0,9.222-1.872,12.965-5.296c0.369-0.376,0.932-0.685,1.555-0.685c1.246,0,2.368,1.122,2.368,2.37
			c0,0.745-0.374,1.371-0.808,1.74c-4.302,3.928-9.042,6.42-16.205,6.42C361.199,112.377,351.913,102.469,351.913,89.94z"/>
		<path d="M399.869,70.186c0-1.371,1.122-2.492,2.428-2.492c1.371,0,2.492,1.122,2.492,2.492v17.202h25.178V70.186
			c0-1.371,1.122-2.492,2.492-2.492c1.311,0,2.432,1.122,2.432,2.492v39.262c0,1.371-1.122,2.492-2.432,2.492
			c-1.371,0-2.492-1.122-2.492-2.492V91.997h-25.178v17.452c0,1.371-1.122,2.492-2.492,2.492c-1.306,0-2.428-1.122-2.428-2.492
			V70.186z"/>
		<path d="M446.574,93.372V70.186c0-1.371,1.122-2.492,2.428-2.492c1.371,0,2.492,1.122,2.492,2.492v22.872
			c0,9.411,5.049,14.71,13.339,14.71c8.04,0,13.15-4.86,13.15-14.396V70.186c0-1.371,1.122-2.492,2.492-2.492
			c1.306,0,2.428,1.122,2.428,2.492v22.81c0,12.711-7.288,19.318-18.195,19.318C453.926,112.314,446.574,105.707,446.574,93.372z"/>
		<path d="M506.115,72.556h-12.651c-1.246,0-2.308-0.999-2.308-2.243c0-1.248,1.062-2.308,2.308-2.308h30.288
			c1.246,0,2.308,1.059,2.308,2.308c0,1.244-1.062,2.243-2.308,2.243h-12.651v36.892c0,1.371-1.122,2.492-2.492,2.492
			c-1.371,0-2.492-1.122-2.492-2.492V72.556z"/>
		<path d="M534.99,109.139V70.495c0-1.369,1.122-2.49,2.432-2.49h27.107c1.251,0,2.248,0.999,2.248,2.243
			c0,1.246-0.997,2.241-2.248,2.241h-24.615v14.899h21.813c1.246,0,2.243,1.057,2.243,2.243c0,1.244-0.997,2.243-2.243,2.243
			h-21.813v15.271h24.929c1.246,0,2.243,0.995,2.243,2.243c0,1.246-0.997,2.241-2.243,2.241h-27.421
			C536.111,111.629,534.99,110.507,534.99,109.139z"/>
	</g>
	<g>
		<path d="M175.958,157.805c-0.279-0.221-0.558-0.614-0.558-1.112c0-0.782,0.671-1.456,1.451-1.456c0.392,0,0.725,0.171,0.949,0.337
			c3.907,3.517,7.816,5.082,13.175,5.082c5.859,0,9.877-3.298,9.877-7.763v-0.108c0-4.131-2.174-6.533-11.05-8.32
			c-9.379-1.897-13.175-5.082-13.175-10.994v-0.113c0-5.804,5.301-10.272,12.559-10.272c5.248,0,8.878,1.341,12.453,4.022
			c0.277,0.222,0.612,0.612,0.612,1.168c0,0.782-0.669,1.454-1.454,1.454c-0.335,0-0.667-0.113-0.946-0.337
			c-3.404-2.622-6.81-3.681-10.777-3.681c-5.747,0-9.543,3.291-9.543,7.369v0.108c0,4.131,2.123,6.646,11.387,8.541
			c9.042,1.844,12.838,5.082,12.838,10.775v0.111c0,6.309-5.412,10.662-12.949,10.662
			C184.944,163.277,180.368,161.438,175.958,157.805z"/>
		<path d="M211.595,143.292v-0.108c0-10.664,7.869-20.209,19.706-20.209c11.83,0,19.591,9.432,19.591,20.096v0.113
			c0,10.66-7.87,20.205-19.706,20.205C219.351,163.388,211.595,153.956,211.595,143.292z M247.878,143.292v-0.108
			c0-9.658-7.034-17.585-16.692-17.585c-9.656,0-16.581,7.812-16.581,17.472v0.113c0,9.654,7.034,17.581,16.697,17.581
			C240.954,160.764,247.878,152.952,247.878,143.292z"/>
		<path d="M260.795,125.095c0-0.782,0.672-1.451,1.454-1.451H287.2c0.725,0,1.339,0.614,1.339,1.339
			c0,0.729-0.614,1.343-1.339,1.343h-23.5v16.016h20.987c0.727,0,1.341,0.616,1.341,1.343c0,0.727-0.614,1.341-1.341,1.341H263.7
			v16.468c0,0.78-0.672,1.447-1.452,1.447c-0.782,0-1.454-0.667-1.454-1.447V125.095z"/>
		<path d="M308.266,126.325h-12.504c-0.727,0-1.341-0.614-1.341-1.343c0-0.725,0.614-1.339,1.341-1.339h27.91
			c0.725,0,1.341,0.614,1.341,1.339c0,0.729-0.616,1.343-1.341,1.343h-12.506v35.168c0,0.78-0.672,1.447-1.449,1.447
			c-0.782,0-1.451-0.667-1.451-1.447V126.325z"/>
		<path d="M331.339,125.651c-0.111-0.275-0.166-0.498-0.166-0.722c0-0.78,0.722-1.507,1.505-1.507c0.782,0,1.341,0.667,1.565,1.339
			l11.892,33.659l11.107-33.881c0.221-0.614,0.614-1.117,1.394-1.117h0.113c0.722,0,1.17,0.503,1.394,1.117l11.11,33.881
			l11.943-33.825c0.282-0.729,0.729-1.172,1.398-1.172c0.725,0,1.452,0.727,1.452,1.447c0,0.226-0.113,0.508-0.226,0.782
			l-13.06,36.232c-0.279,0.722-0.729,1.281-1.507,1.281h-0.108c-0.787,0-1.288-0.558-1.511-1.281l-11.054-32.826l-11.05,32.826
			c-0.226,0.722-0.729,1.281-1.509,1.281h-0.113c-0.78,0-1.223-0.498-1.505-1.281L331.339,125.651z"/>
		<path d="M387.693,160.819l16.69-36.172c0.393-0.838,0.951-1.394,1.957-1.394h0.111c1.006,0,1.565,0.556,1.95,1.394l16.639,36.064
			c0.166,0.335,0.222,0.614,0.222,0.891c0,0.727-0.614,1.339-1.394,1.339c-0.672,0-1.172-0.498-1.452-1.112l-4.576-10.048h-23.055
			l-4.579,10.104c-0.279,0.667-0.725,1.057-1.396,1.057c-0.725,0-1.339-0.556-1.339-1.226
			C387.471,161.493,387.529,161.154,387.693,160.819z M416.609,149.156l-10.27-22.609l-10.328,22.609H416.609z"/>
		<path d="M434.273,125.095c0-0.782,0.672-1.451,1.451-1.451h14.959c4.802,0,8.652,1.509,11.001,3.854
			c1.837,1.842,2.958,4.466,2.958,7.254v0.113c0,6.533-4.86,10.27-11.447,11.165l11.11,14.401c0.279,0.335,0.445,0.672,0.445,1.009
			c0,0.778-0.727,1.502-1.509,1.502c-0.556,0-0.946-0.335-1.283-0.782l-11.998-15.628h-12.785v14.964
			c0,0.78-0.669,1.447-1.452,1.447c-0.78,0-1.451-0.667-1.451-1.447V125.095z M450.352,143.906c6.529,0,11.384-3.291,11.384-8.931
			v-0.111c0-5.248-4.126-8.539-11.216-8.539h-13.344v17.581H450.352z"/>
		<path d="M474.657,161.267v-36.172c0-0.782,0.665-1.451,1.447-1.451h25.231c0.727,0,1.341,0.614,1.341,1.339
			c0,0.729-0.614,1.343-1.341,1.343h-23.777v15.349h21.266c0.725,0,1.343,0.614,1.343,1.341c0,0.725-0.619,1.336-1.343,1.336
			h-21.266v15.686h24.056c0.727,0,1.341,0.618,1.341,1.343c0,0.725-0.614,1.338-1.341,1.338h-25.51
			C475.322,162.719,474.657,162.049,474.657,161.267z"/>
	</g>
	<path d="M48.637,110.194c-4.379-0.515-14.722,6.069-24.939,16.178c-11.662,11.533-15.811,26.251-15.811,26.251
		s14.764-3.986,26.426-15.522c10.217-10.107,16.914-20.378,16.447-24.762l50.123-49.577c6.551,6.081,14.992,9.474,23.986,9.523
		c2.212,0.012,4.392-0.176,6.524-0.556c7.037-1.255,13.527-4.603,18.72-9.74c0.622-0.614,0.627-1.617,0.012-2.238
		c-0.612-0.621-1.616-0.627-2.238-0.012c-6.164,6.095-14.33,9.431-23,9.381c-2.848-0.016-5.628-0.43-8.306-1.151
		c1.229-0.02,2.445-0.121,3.634-0.333c4.457-0.795,8.566-2.915,11.853-6.168c0.622-0.615,0.627-1.617,0.012-2.238
		c-0.617-0.622-1.62-0.629-2.238-0.012c-3.681,3.643-8.564,5.633-13.742,5.605c-5.179-0.029-10.038-2.072-13.68-5.755
		c-3.642-3.682-5.634-8.562-5.605-13.742c0.029-5.179,2.073-10.037,5.755-13.68c0.622-0.614,0.627-1.617,0.012-2.238
		c-0.61-0.622-1.616-0.627-2.238-0.012c-4.151,4.106-6.494,9.546-6.665,15.363c-2.765-10.808,0.077-22.762,8.565-31.16
		c0.622-0.615,0.627-1.617,0.012-2.238c-0.615-0.621-1.616-0.627-2.238-0.012c-13.608,13.462-14.029,35.245-1.258,49.267
		L48.637,110.194z"/>
</g>
</svg>
