<svg id="Layer_1" xmlns="http://www.w3.org/2000/svg" viewBox="0 0 1020 250"><style>.st0{fill:#7A588D;} .st1{fill:#AF9BBB;} .st2{fill:#E4DEE8;} .st3{fill:#CABCD1;} .st4{fill:#957AA4;}</style><g id="XMLID_242_"><g id="XMLID_309_"><g id="XMLID_733_"><circle id="XMLID_740_" class="st0" cx="389.4" cy="61.4" r="6.4"/><circle id="XMLID_739_" class="st1" cx="389.4" cy="42.2" r="3.2"/><circle id="XMLID_738_" class="st1" cx="389.4" cy="80.5" r="1.6"/><circle id="XMLID_737_" class="st2" cx="389.4" cy="28" r="1.6"/><circle id="XMLID_736_" class="st3" cx="401.3" cy="34.4" r="2.2"/><circle id="XMLID_735_" class="st4" cx="399" cy="49.8" r="3.2"/><circle id="XMLID_734_" class="st4" cx="395.8" cy="72.7" r="2.2"/></g><g id="XMLID_725_"><circle id="XMLID_732_" class="st0" cx="372.9" cy="63.5" r="6.4"/><circle id="XMLID_731_" class="st1" cx="367.9" cy="45" r="3.2"/><circle id="XMLID_730_" class="st1" cx="377.9" cy="82.1" r="1.6"/><circle id="XMLID_729_" class="st2" cx="364.3" cy="31.3" r="1.6"/><circle id="XMLID_728_" class="st3" cx="377.3" cy="34.4" r="2.2"/><circle id="XMLID_727_" class="st4" cx="379.2" cy="49.9" r="3.2"/><circle id="XMLID_726_" class="st4" cx="382" cy="72.8" r="2.2"/></g><g id="XMLID_717_"><circle id="XMLID_724_" class="st0" cx="357.5" cy="69.9" r="6.4"/><circle id="XMLID_723_" class="st1" cx="347.9" cy="53.3" r="3.2"/><circle id="XMLID_722_" class="st1" cx="367.1" cy="86.5" r="1.6"/><circle id="XMLID_721_" class="st2" cx="340.8" cy="41" r="1.6"/><circle id="XMLID_720_" class="st3" cx="354.2" cy="40.6" r="2.2"/><circle id="XMLID_719_" class="st4" cx="360" cy="55.1" r="3.2"/><circle id="XMLID_718_" class="st4" cx="368.7" cy="76.5" r="2.2"/></g><g id="XMLID_709_"><circle id="XMLID_716_" class="st0" cx="344.2" cy="80.1" r="6.4"/><circle id="XMLID_715_" class="st1" cx="330.7" cy="66.5" r="3.2"/><circle id="XMLID_714_" class="st1" cx="357.8" cy="93.7" r="1.6"/><circle id="XMLID_713_" class="st2" cx="320.6" cy="56.5" r="1.6"/><circle id="XMLID_712_" class="st3" cx="333.5" cy="52.6" r="2.2"/><circle id="XMLID_711_" class="st4" cx="342.8" cy="65.1" r="3.2"/><circle id="XMLID_710_" class="st4" cx="356.8" cy="83.6" r="2.2"/></g><g id="XMLID_701_"><circle id="XMLID_708_" class="st0" cx="334.1" cy="93.3" r="6.4"/><circle id="XMLID_707_" class="st1" cx="317.5" cy="83.7" r="3.2"/><circle id="XMLID_706_" class="st1" cx="350.7" cy="102.9" r="1.6"/><circle id="XMLID_705_" class="st2" cx="305.2" cy="76.6" r="1.6"/><circle id="XMLID_704_" class="st3" cx="316.6" cy="69.6" r="2.2"/><circle id="XMLID_703_" class="st4" cx="328.8" cy="79.2" r="3.2"/><circle id="XMLID_702_" class="st4" cx="347.1" cy="93.4" r="2.2"/></g><g id="XMLID_693_"><circle id="XMLID_700_" class="st0" cx="327.7" cy="108.7" r="6.4"/><circle id="XMLID_699_" class="st1" cx="309.2" cy="103.8" r="3.2"/><circle id="XMLID_698_" class="st1" cx="346.2" cy="113.7" r="1.6"/><circle id="XMLID_697_" class="st2" cx="295.4" cy="100.1" r="1.6"/><circle id="XMLID_696_" class="st3" cx="304.7" cy="90.3" r="2.2"/><circle id="XMLID_695_" class="st4" cx="319" cy="96.5" r="3.2"/><circle id="XMLID_694_" class="st4" cx="340.3" cy="105.5" r="2.2"/></g><g id="XMLID_685_"><circle id="XMLID_692_" class="st0" cx="325.5" cy="125.3" r="6.4"/><circle id="XMLID_691_" class="st1" cx="306.4" cy="125.3" r="3.2"/><circle id="XMLID_690_" class="st1" cx="344.7" cy="125.3" r="1.6"/><circle id="XMLID_689_" class="st2" cx="292.1" cy="125.3" r="1.6"/><circle id="XMLID_688_" class="st3" cx="298.5" cy="113.5" r="2.2"/><circle id="XMLID_687_" class="st4" cx="313.9" cy="115.7" r="3.2"/><circle id="XMLID_686_" class="st4" cx="336.8" cy="118.9" r="2.2"/></g><g id="XMLID_677_"><circle id="XMLID_684_" class="st0" cx="327.7" cy="141.8" r="6.4"/><circle id="XMLID_683_" class="st1" cx="309.2" cy="146.8" r="3.2"/><circle id="XMLID_682_" class="st1" cx="346.2" cy="136.9" r="1.6"/><circle id="XMLID_681_" class="st2" cx="295.4" cy="150.5" r="1.6"/><circle id="XMLID_680_" class="st3" cx="298.6" cy="137.4" r="2.2"/><circle id="XMLID_679_" class="st4" cx="314" cy="135.6" r="3.2"/><circle id="XMLID_678_" class="st4" cx="337" cy="132.7" r="2.2"/></g><g id="XMLID_669_"><circle id="XMLID_676_" class="st0" cx="334.1" cy="157.3" r="6.4"/><circle id="XMLID_675_" class="st1" cx="317.5" cy="166.8" r="3.2"/><circle id="XMLID_674_" class="st1" cx="350.7" cy="147.7" r="1.6"/><circle id="XMLID_673_" class="st2" cx="305.2" cy="173.9" r="1.6"/><circle id="XMLID_672_" class="st3" cx="304.8" cy="160.5" r="2.2"/><circle id="XMLID_671_" class="st4" cx="319.2" cy="154.8" r="3.2"/><circle id="XMLID_670_" class="st4" cx="340.7" cy="146.1" r="2.2"/></g><g id="XMLID_661_"><circle id="XMLID_668_" class="st0" cx="344.2" cy="170.5" r="6.4"/><circle id="XMLID_667_" class="st1" cx="330.7" cy="184" r="3.2"/><circle id="XMLID_666_" class="st1" cx="357.8" cy="156.9" r="1.6"/><circle id="XMLID_665_" class="st2" cx="320.6" cy="194.1" r="1.6"/><circle id="XMLID_664_" class="st3" cx="316.8" cy="181.2" r="2.2"/><circle id="XMLID_663_" class="st4" cx="329.3" cy="171.9" r="3.2"/><circle id="XMLID_662_" class="st4" cx="347.7" cy="158" r="2.2"/></g><g id="XMLID_653_"><circle id="XMLID_660_" class="st0" cx="357.5" cy="180.6" r="6.4"/><circle id="XMLID_659_" class="st1" cx="347.9" cy="197.3" r="3.2"/><circle id="XMLID_658_" class="st1" cx="367.1" cy="164" r="1.6"/><circle id="XMLID_657_" class="st2" cx="340.8" cy="209.6" r="1.6"/><circle id="XMLID_656_" class="st3" cx="333.7" cy="198.1" r="2.2"/><circle id="XMLID_655_" class="st4" cx="343.4" cy="185.9" r="3.2"/><circle id="XMLID_654_" class="st4" cx="357.6" cy="167.7" r="2.2"/></g><g id="XMLID_645_"><circle id="XMLID_652_" class="st0" cx="372.9" cy="187" r="6.4"/><circle id="XMLID_651_" class="st1" cx="367.9" cy="205.6" r="3.2"/><circle id="XMLID_650_" class="st1" cx="377.9" cy="168.5" r="1.6"/><circle id="XMLID_649_" class="st2" cx="364.3" cy="219.3" r="1.6"/><circle id="XMLID_648_" class="st3" cx="354.5" cy="210.1" r="2.2"/><circle id="XMLID_647_" class="st4" cx="360.6" cy="195.8" r="3.2"/><circle id="XMLID_646_" class="st4" cx="369.7" cy="174.5" r="2.2"/></g><g id="XMLID_637_"><circle id="XMLID_644_" class="st0" cx="389.4" cy="189.2" r="6.4"/><circle id="XMLID_643_" class="st1" cx="389.4" cy="208.4" r="3.2"/><circle id="XMLID_642_" class="st1" cx="389.4" cy="170" r="1.6"/><circle id="XMLID_641_" class="st2" cx="389.4" cy="222.6" r="1.6"/><circle id="XMLID_640_" class="st3" cx="377.6" cy="216.2" r="2.2"/><circle id="XMLID_639_" class="st4" cx="379.9" cy="200.8" r="3.2"/><circle id="XMLID_638_" class="st4" cx="383.1" cy="177.9" r="2.2"/></g><g id="XMLID_629_"><circle id="XMLID_636_" class="st0" cx="406" cy="187" r="6.4"/><circle id="XMLID_635_" class="st1" cx="411" cy="205.6" r="3.2"/><circle id="XMLID_634_" class="st1" cx="401" cy="168.5" r="1.6"/><circle id="XMLID_633_" class="st2" cx="414.6" cy="219.3" r="1.6"/><circle id="XMLID_632_" class="st3" cx="401.6" cy="216.2" r="2.2"/><circle id="XMLID_631_" class="st4" cx="399.7" cy="200.7" r="3.2"/><circle id="XMLID_630_" class="st4" cx="396.9" cy="177.8" r="2.2"/></g><g id="XMLID_621_"><circle id="XMLID_628_" class="st0" cx="421.4" cy="180.6" r="6.4"/><circle id="XMLID_627_" class="st1" cx="431" cy="197.3" r="3.2"/><circle id="XMLID_626_" class="st1" cx="411.8" cy="164" r="1.6"/><circle id="XMLID_625_" class="st2" cx="438.1" cy="209.6" r="1.6"/><circle id="XMLID_624_" class="st3" cx="424.7" cy="209.9" r="2.2"/><circle id="XMLID_623_" class="st4" cx="418.9" cy="195.5" r="3.2"/><circle id="XMLID_622_" class="st4" cx="410.2" cy="174.1" r="2.2"/></g><g id="XMLID_613_"><circle id="XMLID_620_" class="st0" cx="421.4" cy="69.9" r="6.4"/><circle id="XMLID_619_" class="st1" cx="431" cy="53.3" r="3.2"/><circle id="XMLID_618_" class="st1" cx="411.8" cy="86.5" r="1.6"/><circle id="XMLID_617_" class="st2" cx="438.1" cy="41" r="1.6"/><circle id="XMLID_616_" class="st3" cx="445.1" cy="52.5" r="2.2"/><circle id="XMLID_615_" class="st4" cx="435.5" cy="64.7" r="3.2"/><circle id="XMLID_614_" class="st4" cx="421.3" cy="82.9" r="2.2"/></g><g id="XMLID_310_"><circle id="XMLID_612_" class="st0" cx="406" cy="63.5" r="6.4"/><circle id="XMLID_611_" class="st1" cx="411" cy="45" r="3.2"/><circle id="XMLID_610_" class="st1" cx="401" cy="82.1" r="1.6"/><circle id="XMLID_609_" class="st2" cx="414.6" cy="31.3" r="1.6"/><circle id="XMLID_608_" class="st3" cx="424.4" cy="40.5" r="2.2"/><circle id="XMLID_607_" class="st4" cx="418.3" cy="54.8" r="3.2"/><circle id="XMLID_311_" class="st4" cx="409.2" cy="76.1" r="2.2"/></g></g><g id="XMLID_243_"><path id="XMLID_307_" class="st0" d="M369.7 144.1c-5.4-5.3-8.1-11.7-8.1-19.2s2.7-13.9 8.1-19.2c5.4-5.3 12-7.9 19.7-8 6.4 0 12.2 2 17.3 5.9.4.4.6.8.7 1.3.1.5-.1 1-.4 1.3-.3.5-.7.7-1.3.8-.5.1-1-.1-1.3-.4-4.4-3.5-9.4-5.2-15-5.2-6.7 0-12.3 2.3-17 6.9-4.7 4.6-7 10.1-7 16.6 0 6.5 2.3 12 7 16.5s10.1 6.8 16.4 6.8c6.2 0 11.4-1.7 15.5-5.2.5-.3 1-.4 1.5-.3.5.1.9.3 1.2.8.4.4.5.8.5 1.4-.1.6-.3 1-.7 1.3-5 3.9-10.8 5.8-17.3 5.8-7.8 0-14.4-2.7-19.8-7.9z"/><g id="XMLID_305_"><path id="XMLID_306_" class="st0" d="M470.1 149.4l-18.6-49.6c-.3-.8-.8-1.1-1.8-1.1-.9 0-1.6.4-1.9 1.1l-18.6 49.6c-.2.5-.2.9 0 1.4.2.5.6.8 1 1l.7.1c.9 0 1.5-.4 1.8-1.2l4.7-12.6h18.2c1.3 0 2.2-1.3 1.8-2.5-.3-.7-1-1.2-1.8-1.2H439l10.8-28.7 10.8 28.7 1.4 3.7 4.7 12.6c.3.8.9 1.2 1.8 1.2l.7-.1c.5-.2.8-.5 1-1 .1-.4.1-.9-.1-1.4z"/></g><g id="XMLID_300_"><path id="XMLID_304_" class="st0" d="M531.6 100.9c0-.5-.2-.9-.6-1.3-.4-.4-.8-.5-1.3-.5s-.9.2-1.2.5c-.4.4-.6.9-.6 1.4v37.3c0 .4.1.8.3 1.1 1.1 1.5 3.4.8 3.4-1.1v-37.4z"/><path id="XMLID_302_" class="st0" d="M495.5 99.5c-.3-.4-.6-.6-1.2-.7-.5-.1-1.1.1-1.6.5-.6.4-.7 1-.5 1.8l5.1 7.3L528 151l.3.3c.4.5.8.7 1.4.7.6 0 1-.2 1.4-.5.4-.4.6-.8.6-1.3v-.4l-3.9-5.5-32.3-44.8z"/><path id="XMLID_301_" class="st0" d="M492.2 150c0 .5.2 1.1.6 1.4.3.3.8.5 1.2.5.5 0 .9-.2 1.2-.5.4-.4.6-.9.6-1.4v-37.5c0-.4-.1-.7-.3-1.1-1-1.5-3.3-.7-3.3 1.1V150z"/></g><g id="XMLID_248_"><path id="XMLID_299_" class="st0" d="M691.3 99.5c-.3-.4-.6-.6-1.2-.7-.5-.1-1 .1-1.4.4-.9.7-1 1.5-.4 2.6l17.9 24.5v23.8c0 .5.2.9.5 1.3.4.4.8.5 1.3.5s.9-.2 1.3-.5c.4-.4.5-.8.5-1.3v-24.9l-2.2-3.1-16.3-22.6z"/><path id="XMLID_298_" class="st0" d="M728.2 100.4c-.1-.5-.3-.9-.7-1.2-.4-.4-.9-.5-1.4-.4-.5.1-.9.3-1.2.7l-14 19.2c-.5.6-.5 1.5 0 2.2.7 1 2.3 1.1 3 0l14-19.1c.2-.4.3-.9.3-1.4z"/></g><g id="XMLID_246_"><path id="XMLID_247_" class="st0" d="M667.9 103c-3-3-6.6-4.5-10.7-4.5h-19.6c-.5 0-1.1.2-1.4.6-.3.3-.5.8-.5 1.2V150c0 .5.2 1.1.6 1.4.3.3.8.5 1.2.5.5 0 1-.2 1.3-.5.4-.4.6-.8.6-1.3v-47.8h17.8c3.2 0 5.9 1.1 8.1 3.4 2.3 2.3 3.4 5 3.4 8.1 0 3.2-1.1 5.9-3.4 8.1-2.3 2.3-5 3.4-8.1 3.5h-12.7c-1 0-1.8.8-1.8 1.8s.8 1.9 1.9 1.8l12.7-.1c4.2 0 7.8-1.5 10.7-4.5 3-3 4.5-6.6 4.5-10.8s-1.6-7.6-4.6-10.6z"/></g><g id="XMLID_244_"><path id="XMLID_245_" class="st0" d="M601.9 108.4c-.7.7-.7 1.7-.2 2.5 2.8 4 4.3 8.6 4.3 14-.1 6.5-2.2 12-6.5 16.5-4.3 4.6-9.4 6.8-15.4 6.8s-11.2-2.3-15.5-6.8c-4.3-4.5-6.5-10.1-6.5-16.6 0-6.5 2.2-12.1 6.5-16.5 4.3-4.5 9.5-6.7 15.5-6.7 4.8 0 9.1 1.4 12.8 4.3.8.6 1.9.5 2.5-.2.8-.8.8-2.2-.1-2.9-4.3-3.4-9.3-5.1-15.1-5.1-7.2 0-13.2 2.6-18.2 7.9-5 5.3-7.5 11.7-7.6 19.2.1 7.5 2.6 13.9 7.6 19.2 5 5.3 11.1 7.9 18.2 7.9 7.2 0 13.2-2.6 18.1-7.9 4.9-5.3 7.4-11.7 7.5-19.2 0-6.2-1.7-11.6-5.1-16.2-.6-.9-2-1-2.8-.2z"/></g></g></g></svg>