<svg id="Layer_1" xmlns="http://www.w3.org/2000/svg" viewBox="0 0 1020 250"><style>.st0{fill:#0D2838;}</style><g id="XMLID_561_"><g id="XMLID_584_"><g id="XMLID_601_"><path id="XMLID_605_" class="st0" d="M193 111.8c-3-17.4-6-34.5-9-51.2 1.8-.3 3.7-.6 5.6-.8 2.2 14 4.4 28.1 6.6 42.5.1.8.1 1.6.2 2.4.2-.8.4-1.6.7-2.3 4.9-14.6 9.7-29.5 14.6-44.4 1.8-.1 3.6-.1 5.4-.1-6.2 17.9-12.4 36.1-18.6 53.8-1.9 0-3.7 0-5.5.1z"/><path id="XMLID_602_" class="st0" d="M222.4 57.8c2.6 0 5.2.1 7.8.2-1.6 17.7-3.2 35.5-4.9 53.4h-7.8c1.7-17.8 3.3-35.7 4.9-53.6zm7.2 29.4c.3-.8.6-1.6.9-2.5.4-.9.8-1.7 1.3-2.4s1.1-1.3 1.7-1.8c.6-.5 1.4-.7 2.1-.6l9.6.6c.7-7 1.3-14 1.9-21 2.5.3 5.1.7 7.6 1.1-1.6 16.9-3.2 34-4.8 51.3-2.5-.1-5.1-.1-7.6-.2.7-8 1.4-15.9 2.2-23.8-4.9-.3-9.9-.5-14.9-.7z"/></g><g id="XMLID_597_"><path id="XMLID_598_" class="st0" d="M260.1 56.4v122.5c-13.4 7.5-27 14.7-40.6 20.5-13.6-5.8-27.2-13-40.6-20.5V56.4c26.8-5.3 54.5-5.3 81.2 0m5-4c-29.9-7.2-61.2-7.2-91.1 0v129.1c15 8.8 30.3 17.2 45.5 23.7 15.3-6.6 30.6-14.9 45.5-23.7.1-43.1.1-86.1.1-129.1z"/></g><g id="XMLID_585_"><path id="XMLID_596_" class="st0" d="M204.3 186.9c1.1.5 2.1 1 3.2 1.4v-71.4h-3.2v70z"/><path id="XMLID_595_" class="st0" d="M197.5 183.8c1 .5 2.1 1 3.1 1.5v-68.2h-3.1v66.7z"/><path id="XMLID_594_" class="st0" d="M184 177.1c1 .5 2.1 1.1 3.1 1.6v-61.4c-1 0-2.1 0-3.1.1v59.7z"/><path id="XMLID_593_" class="st0" d="M251.7 178.8c1-.5 2.1-1.1 3.1-1.6v-59.9c-1 0-2.1 0-3.1-.1v61.6z"/><path id="XMLID_592_" class="st0" d="M190.8 180.5c1 .5 2.1 1 3.1 1.5v-64.9c-1 0-2.1 0-3.1.1v63.3z"/><path id="XMLID_591_" class="st0" d="M211.1 190c1.1.5 2.1.9 3.2 1.3v-74.4h-3.2V190z"/><path id="XMLID_590_" class="st0" d="M238.2 185.4c1-.5 2.1-1 3.1-1.5v-66.8h-3.1v68.3z"/><path id="XMLID_589_" class="st0" d="M245 182.1c1-.5 2.1-1 3.1-1.5v-63.4c-1 0-2.1 0-3.1-.1v65z"/><path id="XMLID_588_" class="st0" d="M217.9 192.8c.6.2 1.1.5 1.7.7l1.5-.6v-76h-3.2v75.9z"/><path id="XMLID_587_" class="st0" d="M224.7 191.4c1.1-.4 2.1-.9 3.2-1.3V117h-3.2v74.4z"/><path id="XMLID_586_" class="st0" d="M231.5 188.5c1.1-.5 2.1-.9 3.2-1.4v-70h-3.2v71.4z"/></g></g><g id="XMLID_562_"><path id="XMLID_582_" class="st0" d="M302 164.8l-17-94.4h10.5l12.5 77.5.3 4.3 1.2-4.2L337 70.4h10.1l-35 94.4H302z"/><path id="XMLID_579_" class="st0" d="M357.2 70.4h42.3l-.9 9.3H366l-7.4 75.7h34.2l-.8 9.3h-43.9l9.1-94.3zm35 40.4l-.9 9.1H366c1-2.5 2.2-4.7 3.7-6.4 1.5-1.8 3.5-2.7 6-2.7h16.5z"/><path id="XMLID_576_" class="st0" d="M416.3 70.4h9.7l-9.1 94.4h-9.7l9.1-94.4zm43 40.4l3.9-40.4h9.7l-9.1 94.4h-9.7l4.3-44.9H425c1-2.5 2.2-4.7 3.7-6.4 1.5-1.8 3.5-2.7 5.9-2.7h24.7z"/><path id="XMLID_574_" class="st0" d="M491.2 164.8h-9.4l9.1-94.4h9.4l-9.1 94.4z"/><path id="XMLID_572_" class="st0" d="M544.5 166.3c-5.3 0-10-1.1-14.3-3.4-4.3-2.2-7.9-5.5-10.8-9.7-2.9-4.2-5-9.3-6.3-15.2-1.3-6-1.6-12.7-.9-20.2.7-7.3 2.3-13.9 4.7-19.9 2.5-6 5.6-11.2 9.3-15.5 3.7-4.3 8-7.7 12.7-10 4.7-2.4 9.7-3.6 15-3.6 2.9 0 5.8.4 8.7 1.1 3 .7 5.9 1.8 8.9 3.3l-3.5 8.4c-2.9-1.2-5.5-2.1-7.9-2.6-2.4-.5-4.8-.8-7.2-.8-3.5 0-7 .8-10.3 2.5-3.3 1.6-6.4 4.1-9.2 7.4-2.8 3.3-5.1 7.4-7.1 12.4-1.9 5-3.2 10.8-3.8 17.3-.5 5.9-.3 11.2.7 16 1 4.8 2.5 8.9 4.6 12.4 2.1 3.5 4.6 6.1 7.7 8 3 1.9 6.3 2.8 9.9 2.8 2.4 0 4.9-.4 7.5-1.2 2.6-.8 5.4-2.1 8.5-3.9l1.8 8.4c-3.4 2.2-6.7 3.7-9.8 4.6-3 1-6 1.4-8.9 1.4z"/><path id="XMLID_569_" class="st0" d="M584.6 70.4h14.6l-9.1 94.4h-14.6l9.1-94.4zm13.5 51.5c.5-1.4 1.1-2.9 1.7-4.5.7-1.6 1.5-3.1 2.5-4.3 1-1.3 2.1-2.4 3.3-3.2 1.2-.9 2.5-1.3 4-1.3h18.1l3.7-38.2h14.4l-9.1 94.4h-14.4l4.1-42.8h-28.3z"/><path id="XMLID_567_" class="st0" d="M670 144.1l-7.4 20.6h-14.4L684 70.4h14.3l17.6 94.4h-15.1l-11.7-70.2-.4-4.8-1.3 5.1-12 33.6-1.5 2.6 1.6-.3h7.8c1.5 0 2.8.4 3.8 1.3s1.9 1.9 2.6 3.2c.7 1.3 1.2 2.7 1.6 4.3.4 1.6.7 3.1.9 4.5H670z"/><path id="XMLID_565_" class="st0" d="M757 166.6c-4.6 0-8.6-.8-12.1-2.5-3.5-1.6-6.4-4.1-8.7-7.3-2.3-3.2-3.9-7.2-4.8-11.9-.9-4.7-1.1-10.1-.5-16.3l5.6-58.3H751l-5.8 60.2c-.3 3.5-.3 6.7.2 9.5s1.3 5.1 2.5 7.1c1.2 1.9 2.7 3.4 4.4 4.5 1.8 1 3.7 1.6 5.9 1.6s4.3-.5 6.2-1.6c2-1 3.7-2.5 5.3-4.5 1.6-1.9 2.9-4.3 3.9-7.1 1.1-2.8 1.8-5.9 2.1-9.5l5.8-60.2H796l-5.6 58.3c-.5 5.7-1.7 10.9-3.6 15.6-1.8 4.7-4.2 8.7-7.1 12-2.9 3.3-6.2 5.9-10.1 7.7-3.8 1.8-8 2.7-12.6 2.7z"/><path id="XMLID_563_" class="st0" d="M810.8 70.4h14.7l-7.9 81h26.8l-1.2 13.4h-41.5l9.1-94.4z"/></g></g></svg>