<svg id="Layer_1" xmlns="http://www.w3.org/2000/svg" viewBox="0 0 1020 250"><style>.st0{fill:#FFFFFF;} .st1{fill:url(#XMLID_109_);} .st2{fill:url(#XMLID_110_);} .st3{fill:url(#XMLID_111_);} .st4{opacity:0.75;} .st5{fill:url(#XMLID_147_);} .st6{fill:url(#XMLID_148_);} .st7{fill:url(#XMLID_149_);} .st8{fill:none;stroke:#000000;stroke-width:2;stroke-linecap:round;stroke-miterlimit:10;} .st9{fill:#333333;} .st10{fill:none;stroke:#333333;stroke-width:1.5;stroke-miterlimit:10;}</style><g id="XMLID_2_"><g id="XMLID_107_"><g id="XMLID_174_"><path id="XMLID_179_" class="st0" d="M507.6 91.6c0-8.3 0-8.5 4.2-13.9-4-.2-5.7-.5-10.9-1.5-15.4-2.6-16.3-2.8-19.7-2-5.7 1.2-12 8.3-13.7 10.4-6.8 7.7-9.9 11.8-9.9 18 0 3.8 1.4 6.5 3.6 8.4 4.3 3.4 9.2 3.1 13.3 2.5l-17.7 9.6c2.6 2.4 2.6 2.6 2.6 9v20.6c0 5.4-.5 6.5-2.6 8.9 1 .5 6.9 2.9 8.1 3.6 1 .5 2.1 1 3.1 1.5-9.3 8.5-21.9 16.8-40.7 20.8-15.2 3.2-25.5 1.5-30.8.4l31.2-38.8c9.5-11.5 11.4-13.9 11.4-22.2V63.2c6.6 4.5 16.5 7.9 19.4 7.3 2.2-.5 3.1-1.5 5.7-5l14.3-18c-2 .6-3.7 1.2-5.7 1.7-3.7.8-8.6.9-19.8-3.7l-35 29v66.2c0 4.4 0 10.3-.9 13.2-1.1 4.6-2.2 6-11.2 17.6L393.7 187l-5.1-1.8 13.6-17c8.6-10.8 8.6-11.5 8.4-26V58.1l-29.7 24.3c-16.3 13.4-23.3 19.7-28.6 26.5-13 16.8-13.9 33.1-13.9 41.4 0 40.5 34.1 68.4 79.6 58.7 14.5-3.1 21.6-7.7 39.8-26.3 6-6.1 10.3-10.6 13.8-14.2 2.4 1.2 4.7 2.5 6.6 3.7l12.1-14.5c4.8 3 7.4 5 12.5 9.3l12.1-16.3c-.9-.7-5.4-2.8-6.2-3.7-1-.6-1.2-1.6-1.2-5.5v-37.3c5.3-2.3 8.8-4.7 8.8-4.7v-3.4c-2.5 1.7-5.7 3.2-8.8 4.6v-9.1zm-148 44c0-31.2 14.3-43.3 30.6-56.9V87c0 9.2-2.9 15.3-14.7 31.3 5.1-2.2 7.7-3.2 9.7-3.6 4.2-.9 6.4.6 6.4 4.1 0 7-11.7 21.6-16.9 28.2 4-1.7 7-3 9.2-3.5 4.4-.9 6.4.2 6.4 7.7v19.4c0 6.4 0 7.5-4 13.4-8.4-4.6-26.7-16.1-26.7-48.4zm131.9 7.3c0 10.6 0 11.1-2.4 14.2l-13.2-5.9v-37.8c6.9-1.3 10.2-2 15.6-4v33.5zm0-35.7c-1.9.8-4 1.7-7.6 2.5-14.2 3-22.2-3.6-22.2-10.5 0-2.4.9-8.3 8.5-9.9 5.9-1.3 16.6 1.3 21.3 2.4v15.5z"/><path id="XMLID_178_" class="st0" d="M575.6 87.7c-7.1-.4-10.6-1-17.8-3.5l-10.9 15.5-6.8-2.2V71.7c7.4 3.4 16.6 5 22.9 5l12-16.9c-9.9 2.6-20.1-.1-23.9-1.2l-29.4 21.8c2.6 2.6 2.6 2.6 2.6 6.5v15.2c0 4.5-.5 6-2.6 8 7.8 1.5 10.7 2.6 16.1 5.6l11.6-16.2 7.1 2.3v40.9c-15.2-11-21.3-14-27.4-16.9l-11.8 15.8c7.8 2.8 18 6.4 28.2 16l29.4-26c-2.6-2.2-2.6-2.9-2.6-7.9V99.5c0-6.2 0-6.9 3.3-11.8z"/><path id="XMLID_175_" class="st0" d="M630.7 94.5c-6.2-15.8-6.8-17.1-10.4-18.4L642.5 48c-9.2.9-15.6-2.6-19.6-4.7l-18.4 23.5V41c0-14.5 3.5-18.1 12.3-26.2l-.9-1.9-26.7 19.4c-.9 2.1-.9 3.3-.9 15.3 0 2.1 0 10.4-.3 11.5-.5 1.7-2.4 3.1-3.6 4.1 3.8 4.9 4 7.3 4 13.7V122c0 6.9 0 7.6-4 12.1 7.3 4.7 10.4 7.1 15.1 12.2l12.5-17.5c-4.7-2.3-6.1-2.9-6.8-3.8-.7-.9-.7-1.2-.7-4.5V96.2l2.9-4.1c.9.2 1.7.3 2.6 1.2 1.2 1.6 2.9 6 4 8.5 12.5 31.6 13.3 33.7 19.2 37.3l12.6-17.6c-5.8-3.4-7.3-7.4-15.1-27zm-26.2-1.9V70.1l9-11.4c5.7 2.4 9.2 3.6 14 5l-23 28.9z"/></g><g id="XMLID_143_"><path id="XMLID_168_" d="M402.9 218.5c-38.7 0-66.9-27.6-66.9-65.6 0-6.2 0-25.2 14.9-44.5 5.8-7.5 13.8-14.5 29.4-27.3l37.8-31v22.6l36.6-30.4 2.8 1.1c6.1 2.5 10.7 3.8 14 3.8 1 0 1.9-.1 2.9-.3 1.5-.3 3-.8 4.7-1.3l16.2-5.2-24.5 30.9c-2.7 3.5-4.5 5.9-8.6 6.7-.6.1-1.2.2-1.8.2-3.3 0-8.5-1.6-13.6-3.9v55.4c0 10.1-2.9 13.7-12.6 25.4L408.5 187c1.4.1 3 .2 4.7.2 5 0 10.3-.6 15.7-1.7 12.5-2.7 23-7.4 32.7-14.8-1-.4-1.9-.8-2.5-1-.8-.4-1.5-.6-1.8-.8l-6.1-2.8 4.5-5c1.2-1.4 1.3-1.5 1.3-5.6v-20.6c0-1.9 0-3.8-.1-4.5-.2-.2-.7-.6-.9-.9l-5.1-4.7 11.3-6.1c-.5-.3-1-.7-1.5-1.1l-.2-.1c-3.6-3.1-5.4-7.2-5.4-12.2 0-8.1 4.2-13.4 11.1-21.3 2.6-3.2 9.3-10.5 16.4-12 1.2-.2 2.4-.5 4.1-.5 2.8 0 6.4.6 16.9 2.4l.5.1c5.1 1 6.7 1.3 10.3 1.4l9.5.5-5.8 7.5c-3.1 4-3.1 4-3.1 10.8v1.2c.4-.2.8-.5 1.1-.7l7.7-5.1v15.3l-2.2 1.5c-.1.1-2.7 1.8-6.7 3.8V146.5c.7.4 1.7.9 2.3 1.3 1.7.9 2.6 1.4 3.2 1.9l3.8 3-18.2 24.4-4-3.5c-3.5-3-5.7-4.8-8.2-6.5l-12.1 14.4-3.6-2.2c-.9-.6-1.9-1.1-3.1-1.8-2.8 3-6.4 6.6-11.2 11.5-18.8 19.2-26.7 24.3-42.3 27.7-6.2 1.1-12.5 1.8-18.6 1.8zm-35.6-87.7c-.2 2.3-.3 4.7-.3 7.3 0 25.5 12.3 36.7 20 41.7.7-1.6.7-3 .7-6.6v-19.4c0-1.4-.1-2.3-.2-2.9h-.2c-1.8.4-5.3 1.9-8.3 3.2l-5.9-7.6.1-.1c9.9-12.4 15.1-20.5 15.7-24.4-.1 0-.2 0-.3.1-1.5.3-4 1.3-8.7 3.3l-12.6 5.4zm121.6 22.1c.1-1.5.1-3.7.1-7.6v-26.6c-1.7.5-3.5.9-5.7 1.3v30.4l5.6 2.5zM387.6 92c-9.8 8.8-17.3 18-19.7 34l6-8.1c10.6-14.2 13.2-19.6 13.7-25.9zm88.8 4.3c-1.4 0-2.3.1-2.7.2-1.1.2-4.6 1-4.6 5.1 0 3.1 3.6 6.3 10.5 6.3 1.8 0 3.7-.2 5.7-.6 1.5-.3 2.7-.7 3.7-1V98c-3.8-.8-8.7-1.7-12.6-1.7z"/><path id="XMLID_165_" d="M544.6 164c-9.2-8.6-18.4-12-25.8-14.7l-7-2.5 18.2-24.4 3.7 1.7c5.4 2.6 10.6 5.2 20.3 11.8v-27.7l-.2-.1-12.1 16.8-3.9-2.2c-4.8-2.7-7.2-3.6-14.6-5l-9.5-1.8 6.9-6.7c.9-.8 1.1-1 1.1-4.4V89.5v-1.9l-1.1-1.1-4.1-4.1 36.1-26.8 2.4.7c1.8.5 7.2 2.1 13.5 2.1 2.8 0 5.4-.3 7.8-.9l13.2-3.5-21.1 29.9c3.2.8 6 1.1 10.2 1.3l8.7.5-4.9 7.2c-2.4 3.6-2.4 3.6-2.4 9v24.4c0 1.4 0 2.9.1 3.5.1.1.3.3.8.7l4.3 3.7-37.1 32.8-3.5-3zm3-67.9l9-12.8c-2.9-.5-5.9-1.1-9-2v14.8z"/><path id="XMLID_144_" d="M598.3 152.1c-4.2-4.6-7-6.8-14.1-11.4l-4.9-3.1 3.8-4.3c2.7-3.1 2.7-3.1 2.7-8.8V79.3c0-5.9-.1-7-2.9-10.7l-3-3.9 4-3.2c.4-.3 1.4-1.1 1.8-1.5.1-.9.2-3.4.2-10 0-12.8 0-14.2 1.2-17.2l.5-1.3 32.7-23.7 4.9 10.7-2.7 2.4c-8.2 7.5-10.7 9.8-10.7 22.5v11.4l12-15.4 3.9 2.1c3.3 1.7 7.8 4.1 14.1 4.1.8 0 1.7 0 2.5-.1l11.6-1.2-26.2 33.2c2.1 2.8 4.1 7.7 7.9 17.5l.1.3c7.6 19.3 8.8 21.8 13 24.3l4.7 2.7-18.5 25.8-3.9-2.4c-4.9-3-7-5.2-11.7-15.9l-19 26.7-4-4.4zm13.7-27.6c.7.3 1.6.8 2.7 1.3l6.5 3.2c-2.3-5.3-5.1-12.5-9.1-22.7V123c-.1.5-.1 1-.1 1.5zm0-43.7l9.7-12.2c-1.3-.5-2.6-1-4.1-1.5l-5.6 7.1v6.6z"/></g><g id="XMLID_132_"><linearGradient id="XMLID_109_" gradientUnits="userSpaceOnUse" x1="308.058" y1="128.091" x2="670.055" y2="128.091"><stop offset="0" stop-color="#533F17"/><stop offset=".131" stop-color="#9D7237"/><stop offset=".309" stop-color="#EEC97F"/><stop offset=".55" stop-color="#EFCE88"/><stop offset=".875" stop-color="#8C6830"/><stop offset="1" stop-color="#533F17"/></linearGradient><path id="XMLID_137_" class="st1" d="M400.4 213.5c-37.3 0-64.4-26.6-64.4-63.1 0-6 0-24.3 14.4-43 5.7-7.4 13.5-14.3 29-26.9l33.7-27.7v89.5c.2 11.9.2 15-4.6 21.9 5-6.4 5.5-7.6 6.3-10.9v-.2c.8-2.5.8-8.5.8-12.4V73.3l37-30.7 1.4.6c6.5 2.7 11.2 4 14.9 4 1.1 0 2.2-.1 3.4-.4 1.7-.4 3.2-.8 4.9-1.4l8.3-2.7-19.4 24.4c-2.6 3.4-4 5.2-7.1 5.8-.4.1-.8.1-1.3.1-3.6 0-10.4-2.4-16.1-5.5V127c0 9.2-2.5 12.3-12 23.8L401 186.3c2.6.4 5.7.7 9.5.7 5.2 0 10.7-.6 16.3-1.8 14.3-3 26-8.7 36.8-17.7h-.1c-.7-.5-4.5-2.1-6.1-2.7-.8-.3-1.4-.6-1.7-.7l-3.1-1.4 2.2-2.5c1.6-1.8 2-2.2 2-7.2v-20.6c0-5.5 0-5.5-1.8-7.2l-2.5-2.3 12.6-6.9c-2.1-.5-3.9-1.5-5.6-2.8-3.1-2.7-4.6-6.1-4.6-10.4 0-7.4 4-12.3 10.5-19.7 1.8-2.2 8.5-9.7 15-11.1 1.1-.2 2.2-.4 3.6-.4 2.6 0 6.1.6 16.5 2.4l.5.1c5.2 1 6.8 1.3 10.6 1.5l4.7.2-2.9 3.8C510 84 510 84 510 91.6V97c2-1 3.6-1.9 5-2.8l3.9-2.6v9.3l-1.1.7c-.1.1-3.1 2.1-7.8 4.3v35.7c0 .7 0 2.7.2 3.4l.1.1.2.2c.4.3 2.2 1.3 3.2 1.8 1.5.8 2.4 1.3 2.9 1.7l1.9 1.5-15.2 20.3-2-1.7c-4.4-3.7-6.8-5.7-10.3-7.9l-12.1 14.5-1.8-1.1c-1.4-.8-3-1.7-4.8-2.7-3.1 3.2-6.9 7.1-12.5 12.9-18.6 19-25.9 23.7-41.1 27-6.2 1.3-12.4 1.9-18.3 1.9zm-7.5-29.4l6.4-8.1-6.4 8.1zM387.7 84c-14.1 12-25.6 24-25.6 51.5 0 29.4 15.8 40.7 23.3 45.2 2.3-3.6 2.3-4.7 2.3-10.1v-19.4c0-5.5-1-5.5-1.7-5.5-.4 0-1 .1-1.7.2-1.9.4-4.8 1.6-8.8 3.4l-2.9-3.8.1-.1c4.5-5.6 16.3-20.4 16.3-26.6 0-1.6-.5-1.9-1.8-1.9-.5 0-1 .1-1.6.2-1.7.4-4.2 1.3-9.2 3.5l-8.5 3.7 5.5-7.4c11.4-15.4 14.2-21.2 14.2-29.8V84zm100.5 70c.8-1.5.8-3.4.8-11.1V113c-3.3 1.1-6.2 1.7-10.6 2.6v34.1l9.8 4.3zm-14.3-62.7c-1.3 0-2.4.1-3.3.3-5.7 1.2-6.5 5.2-6.5 7.5 0 4.4 4.5 8.8 13 8.8 1.9 0 4-.2 6.2-.7 2.5-.5 4.2-1.2 5.7-1.7V93.6c-4.1-1-10.3-2.3-15.1-2.3z"/><linearGradient id="XMLID_110_" gradientUnits="userSpaceOnUse" x1="308.058" y1="108.446" x2="670.055" y2="108.446"><stop offset="0" stop-color="#533F17"/><stop offset=".131" stop-color="#9D7237"/><stop offset=".309" stop-color="#EEC97F"/><stop offset=".55" stop-color="#EFCE88"/><stop offset=".875" stop-color="#8C6830"/><stop offset="1" stop-color="#533F17"/></linearGradient><path id="XMLID_136_" class="st2" d="M543.8 159.7c-9.5-9-19-12.4-26.7-15.2l-3.8-1.4 15-20.1 1.8.9c6 2.8 11.7 5.8 23.8 14.3v-34.3l-3.7-1.2-11.8 16.5-1.9-1.1c-5-2.8-7.7-3.9-15.4-5.3l-4.7-.9 3.5-3.3c1.4-1.3 1.8-2 1.8-6.2V87.1c0-2.9 0-2.9-1.9-4.8l-2.1-2L550.5 56l1.2.3c5.1 1.5 9.7 2.2 14.2 2.2 3 0 5.8-.3 8.4-1l6.6-1.8-16.6 23.6H563c-5.1 0-13-1.1-20.4-3.8v20.3l3.3 1.1 10.9-15.5 1.8.6c7 2.3 10.2 3 17.2 3.4l4.4.2-2.5 3.6c-2.9 4.2-2.9 4.3-2.9 10.4V124c0 4.6 0 4.6 1.7 6l2.2 1.9-33.3 29.4-1.6-1.6z"/><linearGradient id="XMLID_111_" gradientUnits="userSpaceOnUse" x1="308.058" y1="79.669" x2="670.055" y2="79.669"><stop offset="0" stop-color="#533F17"/><stop offset=".131" stop-color="#9D7237"/><stop offset=".309" stop-color="#EEC97F"/><stop offset=".55" stop-color="#EFCE88"/><stop offset=".875" stop-color="#8C6830"/><stop offset="1" stop-color="#533F17"/></linearGradient><path id="XMLID_133_" class="st3" d="M597.7 148c-4.4-4.8-7.3-7.1-14.6-11.8l-2.4-1.6 1.9-2.2c3.4-3.8 3.4-3.8 3.4-10.5V76.8c0-6.1-.1-7.9-3.5-12.2l-1.5-2 2-1.6c.8-.7 2.4-1.9 2.7-2.7 0-.2.2-1.9.2-10.8 0-12.4 0-13.7 1.1-16.2l.3-.6L617 9.1l2.9 6.3-1.3 1.2C610.1 24.3 607 27.2 607 41v18.6l15.2-19.4 2.1 1.1c3.3 1.8 8.4 4.4 15.2 4.4.9 0 1.8 0 2.7-.1l5.8-.6-23.9 30.3c2.5 2 4.1 6 8.9 18.3l.1.3c7.6 19.1 8.9 22.5 14 25.5l2.4 1.4-15.5 21.6-2-1.2c-6.7-4.1-7.7-6.7-20.2-38.5l-.1-.3c-.8-2-2.3-5.7-3.3-7.3L607 97v23.5c0 1.4 0 2.6.1 2.9l.1.1c.2.3 1.9 1.1 3.9 2.1l4.6 2.3-15.9 22.4-2.1-2.3zm9.3-62.5L623.3 65c-2.8-.9-5.5-1.8-9-3.3L607 71v14.5z"/></g><g id="XMLID_108_"><g id="XMLID_122_" class="st4"><path id="XMLID_127_" d="M507.6 92.9c0-8.3 0-8.5 4.2-13.9-4-.2-5.7-.5-10.9-1.5-15.4-2.6-16.3-2.8-19.7-2-5.7 1.2-12 8.3-13.7 10.4-6.8 7.7-9.9 11.8-9.9 18 0 3.8 1.4 6.5 3.6 8.4 4.3 3.4 9.2 3.1 13.3 2.5l-17.7 9.6c2.6 2.4 2.6 2.6 2.6 9V154c0 5.4-.5 6.5-2.6 8.9 1 .5 6.9 2.9 8.1 3.6 1 .5 2.1 1 3.1 1.5-9.3 8.5-21.9 16.8-40.7 20.8-15.2 3.2-25.5 1.5-30.8.4l31.2-38.8c9.5-11.5 11.4-13.9 11.4-22.2V64.4c6.6 4.5 16.5 7.9 19.4 7.3 2.2-.5 3.1-1.5 5.7-5l14.3-18c-2 .6-3.7 1.2-5.7 1.7-3.7.8-8.6.9-19.8-3.7l-35 29V142c0 4.4 0 10.3-.9 13.2-1.1 4.6-2.2 6-11.2 17.6l-12.3 15.6-5.1-1.8 13.6-17c8.6-10.8 8.6-11.5 8.4-26V59.3l-29.7 24.3c-16.3 13.4-23.3 19.7-28.6 26.5-13 16.8-13.9 33.1-13.9 41.4 0 40.5 34.1 68.4 79.6 58.7 14.5-3.1 21.6-7.7 39.8-26.3 6-6.1 10.3-10.6 13.8-14.2 2.4 1.2 4.7 2.5 6.6 3.7l12.1-14.5c4.8 3 7.4 5 12.5 9.3l12.1-16.3c-.9-.7-5.4-2.8-6.2-3.7-1-.6-1.2-1.6-1.2-5.5v-37.3c5.3-2.3 8.8-4.7 8.8-4.7v-3.4c-2.5 1.7-5.7 3.2-8.8 4.6v-9zm-148 43.9c0-31.2 14.3-43.3 30.6-56.9v8.4c0 9.2-2.9 15.3-14.7 31.3 5.1-2.2 7.7-3.2 9.7-3.6 4.2-.9 6.4.6 6.4 4.1 0 7-11.7 21.6-16.9 28.2 4-1.7 7-3 9.2-3.5 4.4-.9 6.4.2 6.4 7.7v19.4c0 6.4 0 7.5-4 13.4-8.4-4.7-26.7-16.2-26.7-48.5zm131.9 7.3c0 10.6 0 11.1-2.4 14.2l-13.2-5.9v-37.8c6.9-1.3 10.2-2 15.6-4v33.5zm0-35.7c-1.9.8-4 1.7-7.6 2.5-14.2 3-22.2-3.6-22.2-10.5 0-2.4.9-8.3 8.5-9.9 5.9-1.3 16.6 1.3 21.3 2.4v15.5z"/><path id="XMLID_126_" d="M575.6 89c-7.1-.4-10.6-1-17.8-3.5L546.9 101l-6.8-2.2V73c7.4 3.4 16.6 5 22.9 5l12-16.9c-9.9 2.6-20.1-.1-23.9-1.2l-29.4 21.8c2.6 2.6 2.6 2.6 2.6 6.5v15.2c0 4.5-.5 6-2.6 8 7.8 1.5 10.7 2.6 16.1 5.6l11.6-16.2 7.1 2.3V144c-15.2-11-21.3-14-27.4-16.9l-11.8 15.8c7.8 2.8 18 6.4 28.2 16l29.4-26c-2.6-2.2-2.6-2.9-2.6-7.9v-24.4c0-6.1 0-6.8 3.3-11.6z"/><path id="XMLID_123_" d="M630.7 95.7c-6.2-15.8-6.8-17.1-10.4-18.4l22.2-28.1c-9.2.9-15.6-2.6-19.6-4.7L604.5 68V42.2c0-14.5 3.5-18.1 12.3-26.2l-.9-1.9-26.7 19.4c-.9 2.1-.9 3.3-.9 15.3 0 2.1 0 10.4-.3 11.5-.5 1.7-2.4 3.1-3.6 4.1 3.8 4.9 4 7.3 4 13.7v45.2c0 6.9 0 7.6-4 12.1 7.3 4.7 10.4 7.1 15.1 12.2L612 130c-4.7-2.3-6.1-2.9-6.8-3.8-.7-.9-.7-1.2-.7-4.5V97.5l2.9-4.1c.9.2 1.7.3 2.6 1.2 1.2 1.6 2.9 6 4 8.5 12.5 31.6 13.3 33.7 19.2 37.3l12.6-17.6c-5.8-3.4-7.3-7.4-15.1-27.1zm-26.2-1.9V71.3l9-11.4c5.7 2.4 9.2 3.6 14 5l-23 28.9z"/></g><g id="XMLID_112_"><linearGradient id="XMLID_147_" gradientUnits="userSpaceOnUse" x1="427.451" y1="172.663" x2="427.451" y2="91.63"><stop offset="0" stop-color="#DBDCDD"/><stop offset="1" stop-color="#F1F1F2"/></linearGradient><path id="XMLID_117_" class="st5" d="M507.6 91.6c0-8.3 0-8.5 4.2-13.9-4-.2-5.7-.5-10.9-1.5-15.4-2.6-16.3-2.8-19.7-2-5.7 1.2-12 8.3-13.7 10.4-6.8 7.7-9.9 11.8-9.9 18 0 3.8 1.4 6.5 3.6 8.4 4.3 3.4 9.2 3.1 13.3 2.5l-17.7 9.6c2.6 2.4 2.6 2.6 2.6 9v20.6c0 5.4-.5 6.5-2.6 8.9 1 .5 6.9 2.9 8.1 3.6 1 .5 2.1 1 3.1 1.5-9.3 8.5-21.9 16.8-40.7 20.8-15.2 3.2-25.5 1.5-30.8.4l31.2-38.8c9.5-11.5 11.4-13.9 11.4-22.2V63.2c6.6 4.5 16.5 7.9 19.4 7.3 2.2-.5 3.1-1.5 5.7-5l14.3-18c-2 .6-3.7 1.2-5.7 1.7-3.7.8-8.6.9-19.8-3.7l-35 29v66.2c0 4.4 0 10.3-.9 13.2-1.1 4.6-2.2 6-11.2 17.6L393.7 187l-5.1-1.8 13.6-17c8.6-10.8 8.6-11.5 8.4-26V58.1l-29.7 24.3c-16.3 13.4-23.3 19.7-28.6 26.5-13 16.8-13.9 33.1-13.9 41.4 0 40.5 34.1 68.4 79.6 58.7 14.5-3.1 21.6-7.7 39.8-26.3 6-6.1 10.3-10.6 13.8-14.2 2.4 1.2 4.7 2.5 6.6 3.7l12.1-14.5c4.8 3 7.4 5 12.5 9.3l12.1-16.3c-.9-.7-5.4-2.8-6.2-3.7-1-.6-1.2-1.6-1.2-5.5v-37.3c5.3-2.3 8.8-4.7 8.8-4.7v-3.4c-2.5 1.7-5.7 3.2-8.8 4.6v-9.1zm-148 44c0-31.2 14.3-43.3 30.6-56.9V87c0 9.2-2.9 15.3-14.7 31.3 5.1-2.2 7.7-3.2 9.7-3.6 4.2-.9 6.4.6 6.4 4.1 0 7-11.7 21.6-16.9 28.2 4-1.7 7-3 9.2-3.5 4.4-.9 6.4.2 6.4 7.7v19.4c0 6.4 0 7.5-4 13.4-8.4-4.6-26.7-16.1-26.7-48.4zm131.9 7.3c0 10.6 0 11.1-2.4 14.2l-13.2-5.9v-37.8c6.9-1.3 10.2-2 15.6-4v33.5zm0-35.7c-1.9.8-4 1.7-7.6 2.5-14.2 3-22.2-3.6-22.2-10.5 0-2.4.9-8.3 8.5-9.9 5.9-1.3 16.6 1.3 21.3 2.4v15.5z"/><linearGradient id="XMLID_148_" gradientUnits="userSpaceOnUse" x1="546.451" y1="172.663" x2="546.451" y2="91.63"><stop offset="0" stop-color="#DBDCDD"/><stop offset="1" stop-color="#F1F1F2"/></linearGradient><path id="XMLID_116_" class="st6" d="M575.6 87.7c-7.1-.4-10.6-1-17.8-3.5l-10.9 15.5-6.8-2.2V71.7c7.4 3.4 16.6 5 22.9 5l12-16.9c-9.9 2.6-20.1-.1-23.9-1.2l-29.4 21.8c2.6 2.6 2.6 2.6 2.6 6.5v15.2c0 4.5-.5 6-2.6 8 7.8 1.5 10.7 2.6 16.1 5.6l11.6-16.2 7.1 2.3v40.9c-15.2-11-21.3-14-27.4-16.9l-11.8 15.8c7.8 2.8 18 6.4 28.2 16l29.4-26c-2.6-2.2-2.6-2.9-2.6-7.9V99.5c0-6.2 0-6.9 3.3-11.8z"/><linearGradient id="XMLID_149_" gradientUnits="userSpaceOnUse" x1="615.187" y1="172.663" x2="615.187" y2="91.63"><stop offset="0" stop-color="#DBDCDD"/><stop offset="1" stop-color="#F1F1F2"/></linearGradient><path id="XMLID_113_" class="st7" d="M630.7 94.5c-6.2-15.8-6.8-17.1-10.4-18.4L642.5 48c-9.2.9-15.6-2.6-19.6-4.7l-18.4 23.5V41c0-14.5 3.5-18.1 12.3-26.2l-.9-1.9-26.7 19.4c-.9 2.1-.9 3.3-.9 15.3 0 2.1 0 10.4-.3 11.5-.5 1.7-2.4 3.1-3.6 4.1 3.8 4.9 4 7.3 4 13.7V122c0 6.9 0 7.6-4 12.1 7.3 4.7 10.4 7.1 15.1 12.2l12.5-17.5c-4.7-2.3-6.1-2.9-6.8-3.8-.7-.9-.7-1.2-.7-4.5V96.2l2.9-4.1c.9.2 1.7.3 2.6 1.2 1.2 1.6 2.9 6 4 8.5 12.5 31.6 13.3 33.7 19.2 37.3l12.6-17.6c-5.8-3.4-7.3-7.4-15.1-27zm-26.2-1.9V70.1l9-11.4c5.7 2.4 9.2 3.6 14 5l-23 28.9z"/></g></g></g><g id="XMLID_104_"><path id="XMLID_106_" d="M406.1 129.1c0 2.8-2.3 5.1-5.1 5.1s-5.1-2.3-5.1-5.1 5.1-10 5.1-10 5.1 7.1 5.1 10z"/><path id="XMLID_1_" d="M406.1 111.7c0 2.8-2.3 5.1-5.1 5.1s-5.1-2.3-5.1-5.1 5.1-10 5.1-10 5.1 7.2 5.1 10z"/></g><g id="XMLID_101_"><path id="XMLID_103_" d="M403.8 84.4c0 1.5-1.2 2.7-2.7 2.7-1.5 0-2.7-1.2-2.7-2.7 0-1.5 2.7-5.3 2.7-5.3s2.7 3.8 2.7 5.3z"/><path id="XMLID_102_" d="M403.8 78.5c0 1.5-1.2 2.7-2.7 2.7-1.5 0-2.7-1.2-2.7-2.7 0-1.5 2.7-5.3 2.7-5.3s2.7 3.8 2.7 5.3z"/></g><g id="XMLID_98_"><path id="XMLID_100_" d="M403.8 160c0 1.5-1.2 2.7-2.7 2.7-1.5 0-2.7-1.2-2.7-2.7 0-1.5 2.7-5.3 2.7-5.3s2.7 3.7 2.7 5.3z"/><path id="XMLID_99_" d="M403.8 154.1c0 1.5-1.2 2.7-2.7 2.7-1.5 0-2.7-1.2-2.7-2.7s2.7-5.3 2.7-5.3 2.7 3.8 2.7 5.3z"/></g><path id="XMLID_95_" d="M353.8 112s-1.5 2.2-3.5 6.3-4.6 10.1-6.3 17.7c-.9 3.8-1.5 8-1.6 12.4-.1 4.4.2 9.1 1.3 13.8 1 4.7 2.7 9.4 5 13.9s5.3 8.7 8.7 12.6l1.3 1.5 1.4 1.4 1.4 1.4.7.7.1.1c-.1-.1 0 0 0 0l.2.1.4.3c2 1.5 4.1 2.9 6.3 4.2 4.4 2.5 9 4.4 13.6 5.8 4.6 1.4 9.2 2.2 13.6 2.6 4.4.4 8.6.3 12.4-.2 3.8-.4 7.3-1.2 10.4-1.9 3-.8 5.7-1.7 7.8-2.5 1.1-.4 2-.8 2.8-1.1.8-.4 1.5-.7 2-.9 1.1-.5 1.7-.8 1.7-.8.4-.2.9 0 1.1.4.2.4 0 .9-.4 1.1 0 0-.6.3-1.7.8l-2 1c-.8.4-1.8.8-2.8 1.2-2.1.9-4.8 1.9-7.9 2.8-3.1.9-6.7 1.8-10.7 2.2-4 .5-8.3.7-12.9.4-4.6-.3-9.4-1.2-14.2-2.6-4.8-1.4-9.6-3.5-14.2-6.1-2.3-1.3-4.5-2.7-6.7-4.4l-.4-.3-.2-.2-.1-.1-.1-.1-.7-.7-1.4-1.4-1.4-1.4-1.3-1.5c-3.5-4.1-6.5-8.5-8.9-13.2-2.4-4.7-4-9.7-5-14.6s-1.2-9.8-1-14.4c.2-4.6 1-8.8 1.9-12.7 1-3.9 2.2-7.3 3.4-10.3 1.2-3 2.5-5.5 3.6-7.5 2.2-4.1 3.8-6.2 3.8-6.2.1-.1.3-.2.4-.1.1.2.1.3.1.5z"/><path id="XMLID_94_" d="M460.8 123.6c.5.6.8 1.3 1 2 .2.7.3 1.4.4 2.1 0 .7 0 1.4.1 2v2l.2 8 .4 16v.1c0 .5-.1.9-.1 1.3s-.1.9-.2 1.3-.2.9-.3 1.4c-.1.2-.2.5-.3.7-.1.2-.2.5-.4.8l-.6-2c2.9 1.4 5.8 2.8 8.7 4.3 2.8 1.5 5.6 3.1 8.3 5 .2.2.3.5.1.8-.2.2-.5.3-.7.2-2.7-1.6-5.6-3-8.5-4.2-2.9-1.3-5.9-2.5-8.8-3.6l-1.4-.5.9-1.5c.1-.1.1-.2.2-.3.1-.1.1-.3.2-.5.1-.3.2-.7.3-1.1.1-.4.2-.8.2-1.2.1-.4.1-.8.2-1.2v.1l.4-16 .2-8v-2-2c0-.6-.1-1.3-.2-1.9-.1-.6-.4-1.2-.7-1.6-.1-.2-.1-.5.1-.6-.1-.1.2-.1.3.1z"/><path id="XMLID_93_" d="M494 91.8l.6 32.4.3 16.2.1 8.1v2.1c0 .7-.1 1.4-.2 2.1-.1.7-.2 1.4-.4 2.1-.1.4-.2.7-.4 1.1-.2.4-.4.8-.9 1.3l-.2-2.1c1.9 1.4 3.8 2.9 5.6 4.5l2.7 2.4c.8.9 1.7 1.7 2.3 2.8.1.1 0 .2-.1.3-.1.1-.2 0-.3-.1-.7-.9-1.7-1.6-2.6-2.3-1-.7-1.9-1.3-2.9-1.9-2-1.2-4-2.4-6.1-3.5l-.2-2.1s.1-.1.2-.4c.1-.2.2-.5.3-.8.2-.6.3-1.2.4-1.8.1-.6.2-1.3.2-1.9v-1.9l.1-8.1.3-16.2.6-32.4c0-.1.1-.2.2-.2.3.1.4.2.4.3z"/><path id="XMLID_92_" d="M558.6 102.7l.4 40c0 .3-.3.6-.6.6s-.6-.3-.6-.6l.4-40c0-.1.1-.3.3-.3 0 0 .1.2.1.3z"/><path id="XMLID_91_" d="M523.7 80.1c.5.4 1 .8 1.4 1.3.4.5.7 1.1.9 1.8.1.3.1.7.1 1V87l.1 7.5.1 7.5v1.9c0 .6 0 1.3-.1 1.9-.1.6-.2 1.3-.3 1.9-.2.6-.4 1.3-.8 1.9l-.4-1c2.2.4 4.4 1 6.5 1.7 1.1.4 2.1.8 3.1 1.3.5.2 1 .5 1.5.8.5.3.9.6 1.4 1 .1.1.2.3.1.5-.1.1-.3.2-.5.1-.4-.3-.9-.6-1.4-.9-.5-.3-1-.5-1.5-.7-1-.4-2-.8-3.1-1.1-2.1-.6-4.3-1.1-6.4-1.4l-.9-.1.5-.8c.3-.4.5-1 .6-1.5.2-.6.3-1.2.3-1.8.1-.6.1-1.2.1-1.8V102l.1-7.5.1-7.5v-2.8c0-.3 0-.6-.1-.8-.3-1.1-1.1-2.1-2-2.8-.1-.1-.1-.2-.1-.4.5-.2.6-.2.7-.1z"/><path id="XMLID_90_" d="M593.5 31.6l-2.7 1.9.1-.1c-.3.5-.4 1.1-.5 1.7-.1.6-.2 1.2-.2 1.9v3.9l.1 7.8.1 7.8v2c-.1.7-.2 1.4-.4 2.1-.5 1.3-1.4 2.5-2.5 3.3l.1-.9c1 1.2 1.6 2.4 2.1 3.7.5 1.3.9 2.7 1 4.1.2 1.4.1 2.8.1 4.1v20.4l-.1 32.5v.6c0 .2-.1.3-.1.5l-.3.9c-.2.6-.5 1.1-.8 1.7-.6 1.1-1.3 2-2.1 3l-.1-.7c2.2 1.3 4.3 2.7 6.4 4.2 2 1.5 4 3.2 5.6 5.2.1.1.1.3 0 .4-.1.1-.3.1-.4 0-1.6-1.9-3.6-3.5-5.6-4.9-2-1.4-4.2-2.8-6.4-4l-.5-.3.4-.5c.7-.9 1.4-1.8 2-2.8.3-.5.5-1 .7-1.5.1-.3.2-.5.2-.8 0-.1.1-.3.1-.4v-.3l-.1-32.5V75.2c0-1.4 0-2.7-.1-4-.2-1.3-.5-2.6-1-3.8-.5-1.2-1.1-2.4-1.9-3.3l-.4-.5.5-.4c1-.7 1.7-1.6 2.1-2.7.2-.5.4-1.2.4-1.7v-1.9l.1-7.8.1-7.8v-3.9c0-.7.1-1.3.2-2s.3-1.3.6-1.9v-.1h.1l2.7-1.9c.1-.1.3-.1.5.1 0-.3 0-.1-.1 0z"/><path id="XMLID_89_" d="M609.2 90.2s.2.1.6.1c.2.1.4.1.7.2.3.1.6.2 1 .6.5.8.7 1.5 1.2 2.5.4.9.9 2 1.4 3.1 2 4.6 4.6 10.7 7.1 16.9 1.3 3.1 2.5 6.2 3.7 9.1 1.1 2.9 2.2 5.6 3.2 7.9 1 2.2 2.2 3.9 3.2 4.9.5.5 1 .8 1.3.9.3.2.5.3.5.3.1.1.2.2.1.3-.1.1-.2.2-.3.1 0 0-.2-.1-.6-.2-.4-.2-.9-.5-1.5-.9-1.2-.9-2.5-2.7-3.7-4.9-1.1-2.3-2.2-5-3.4-7.9-1.2-2.9-2.4-6-3.6-9.1-2.5-6.2-5.1-12.3-7-16.9-.5-1.2-.9-2.2-1.3-3.2-.4-.9-.7-1.8-1-2.3-.1-.2-.5-.3-.7-.4-.2-.1-.5-.2-.7-.2-.4-.1-.6-.2-.6-.2-.2 0-.3-.2-.2-.4.2-.3.4-.4.6-.3z"/><path id="XMLID_88_" d="M426.4 70.5l-6.3 5.3.2-.5v70.6c0 1.7-.1 3.4-.3 5.1-.3 1.7-.5 3.5-1.7 5-.2.2-.5.2-.7.1-.2-.2-.2-.5-.1-.7v-.1c.9-1.2 1.1-2.9 1.3-4.5.2-1.6.2-3.3.2-5V75l.2-.2 6.5-5c.2-.2.5-.1.7.1.2.2.2.4 0 .6z"/><path id="XMLID_87_" d="M401 93.6s.4 3.1.6 7.7c.1 2.3.3 5 .3 7.9.1 2.9.1 6 .1 9.1v4.6c0 1.5-.1 3-.1 4.5-.1 2.9-.2 5.6-.3 7.9-.2 4.6-.6 7.7-.6 7.7h-.1s-.4-3.1-.6-7.7c-.1-2.3-.2-5-.3-7.9 0-1.5-.1-2.9-.1-4.5v-4.6c0-3.1 0-6.2.1-9.1.1-2.9.2-5.6.3-7.9.4-4.6.7-7.7.7-7.7z"/><circle id="XMLID_86_" class="st9" cx="351.6" cy="218.3" r="4.7"/><g id="XMLID_84_"><path id="XMLID_85_" class="st9" d="M407.4 234c-31.4 0-55.9-14.7-56.3-14.9l1-1.6c.4.3 44.8 26.9 90.6 7.7 46.2-19.5 213.1-70.2 214.7-70.7l.5 1.8c-1.7.5-168.4 51.2-214.6 70.6-12.3 5.2-24.5 7.1-35.9 7.1z"/></g><g id="XMLID_79_"><g id="XMLID_82_"><circle id="XMLID_83_" class="st9" cx="665.5" cy="174.7" r="4.7"/></g><g id="XMLID_80_"><path id="XMLID_81_" class="st9" d="M667.1 188c-5.5 0-10.7-3.6-12.4-9.2-1.7-5.5 1.5-11.4 7-13.1 2.2-.7 4.5-.4 6.5.7s3.5 2.9 4.2 5.1c1.1 3.7-1 7.7-4.7 8.8-1.5.4-3.1.3-4.4-.5-1.4-.7-2.4-2-2.8-3.5-.4-1.2-.2-2.6.4-3.7.6-1.1 1.6-2 2.9-2.3 1-.3 2.1-.2 3.1.3s1.7 1.4 2 2.4c.3.9.2 1.8-.3 2.6-.4.8-1.2 1.4-2 1.7-1.6.5-3.2-.4-3.7-2-.4-1.3.4-2.8 1.7-3.2l.5 1.8c-.4.1-.6.5-.5.8.2.6.8.9 1.3.7.4-.1.7-.4.9-.8.2-.4.2-.8.1-1.2-.2-.6-.5-1-1.1-1.3-.5-.3-1.1-.3-1.7-.2-.8.2-1.4.7-1.8 1.4-.4.7-.5 1.5-.2 2.3.3 1 1 1.9 1.9 2.4.9.5 2 .6 3 .3 2.7-.8 4.3-3.7 3.5-6.5-.5-1.7-1.7-3.1-3.3-4-1.6-.9-3.4-1-5.1-.5-4.6 1.4-7.2 6.2-5.8 10.8 1.7 5.8 7.9 9.1 13.7 7.4 3.6-1.1 6.5-3.5 8.3-6.8 1.8-3.3 2.2-7.1 1.1-10.7-2.8-9.4-12.7-14.7-22.1-11.9l-.5-1.8c10.4-3.1 21.3 2.8 24.4 13.2 1.2 4.1.8 8.4-1.2 12.1-2 3.7-5.4 6.5-9.4 7.7-1.1.5-2.3.7-3.5.7z"/></g></g><path id="XMLID_78_" class="st10" d="M454.6 221.4s4.5-1.3 7.9.8c3.4 2.2 11.6 10.1 16.9 8.4 5.3-1.7 153.7-50.1 153.7-50.1s3.9-2.5 5.3-6.8 3.4-13.5 8.2-15"/><g id="XMLID_3_"><g id="XMLID_76_"><path id="XMLID_77_" class="st9" d="M462.693 218.006l1.158.315-1.13 4.15-1.156-.315z"/></g><g id="XMLID_74_"><path id="XMLID_75_" class="st9" d="M467.65 216.68l1.158.316-2.05 7.526-1.157-.315z"/></g><g id="XMLID_72_"><path id="XMLID_73_" class="st9" d="M472.64 214.954l1.158.315-3.18 11.674-1.157-.315z"/></g><g id="XMLID_70_"><path id="XMLID_71_" class="st9" d="M477.603 213.323l1.158.315-4.334 15.92-1.157-.314z"/></g><g id="XMLID_68_"><path id="XMLID_69_" class="st9" d="M482.654 211.7l1.157.315-5.253 19.298-1.157-.315z"/></g><g id="XMLID_66_"><path id="XMLID_67_" class="st9" d="M487.71 209.806l1.156.316-5.385 19.78-1.157-.315z"/></g><g id="XMLID_64_"><path id="XMLID_65_" class="st9" d="M492.632 208.1l1.158.317-5.595 20.552-1.158-.316z"/></g><g id="XMLID_62_"><path id="XMLID_63_" class="st9" d="M497.645 206.405l1.158.315-5.596 20.553-1.158-.315z"/></g><g id="XMLID_60_"><path id="XMLID_61_" class="st9" d="M502.758 204.522l1.158.315-5.648 20.745-1.158-.315z"/></g><g id="XMLID_58_"><path id="XMLID_59_" class="st9" d="M507.766 202.594l1.158.316-5.464 20.07-1.158-.316z"/></g><g id="XMLID_56_"><path id="XMLID_57_" class="st9" d="M512.955 200.42l1.157.315-5.648 20.746-1.157-.315z"/></g><g id="XMLID_54_"><path id="XMLID_55_" class="st9" d="M517.734 199.608l1.158.315-5.412 19.877-1.157-.315z"/></g><g id="XMLID_52_"><path id="XMLID_53_" class="st9" d="M522.747 197.912l1.157.315-5.41 19.877-1.16-.315z"/></g><g id="XMLID_50_"><path id="XMLID_51_" class="st9" d="M527.836 195.71l1.157.315-5.595 20.553-1.158-.316z"/></g><g id="XMLID_48_"><path id="XMLID_49_" class="st9" d="M532.673 194.506l1.158.315-5.674 20.843-1.158-.315z"/></g><g id="XMLID_46_"><path id="XMLID_47_" class="st9" d="M537.648 193.01l1.158.315-5.648 20.745-1.158-.315z"/></g><g id="XMLID_44_"><path id="XMLID_45_" class="st9" d="M542.656 191.31l1.158.317-5.648 20.745-1.158-.315z"/></g><g id="XMLID_42_"><path id="XMLID_43_" class="st9" d="M547.76 189.41l1.16.316-5.465 20.07-1.158-.316z"/></g><g id="XMLID_40_"><path id="XMLID_41_" class="st9" d="M552.658 187.895l1.158.315-5.438 19.974-1.158-.316z"/></g><g id="XMLID_38_"><path id="XMLID_39_" class="st9" d="M557.54 186.603l1.158.315-5.595 20.552-1.158-.315z"/></g><g id="XMLID_36_"><path id="XMLID_37_" class="st9" d="M562.527 185.003l1.158.315-5.596 20.553-1.16-.315z"/></g><g id="XMLID_34_"><path id="XMLID_35_" class="st9" d="M567.675 183.04l1.158.316-5.885 21.614-1.158-.315z"/></g><g id="XMLID_32_"><path id="XMLID_33_" class="st9" d="M572.518 181.69l1.158.315-5.386 19.78-1.158-.315z"/></g><g id="XMLID_30_"><path id="XMLID_31_" class="st9" d="M577.538 180.01l1.158.316-5.596 20.552-1.158-.315z"/></g><g id="XMLID_28_"><path id="XMLID_29_" class="st9" d="M582.448 178.687l1.157.315-5.254 19.298-1.156-.315z"/></g><g id="XMLID_26_"><path id="XMLID_27_" class="st9" d="M587.53 176.697l1.157.315-5.385 19.78-1.158-.314z"/></g><g id="XMLID_24_"><path id="XMLID_25_" class="st9" d="M592.553 174.805l1.158.315-5.647 20.746-1.158-.316z"/></g><g id="XMLID_22_"><path id="XMLID_23_" class="st9" d="M597.532 173.417l1.157.315-5.596 20.553-1.158-.315z"/></g><g id="XMLID_20_"><path id="XMLID_21_" class="st9" d="M602.35 172.3l1.158.314-5.41 19.877-1.16-.314z"/></g><g id="XMLID_18_"><path id="XMLID_19_" class="st9" d="M607.526 170.105l1.158.315-5.385 19.78-1.16-.315z"/></g><g id="XMLID_16_"><path id="XMLID_17_" class="st9" d="M612.55 168.213l1.16.315-5.65 20.745-1.157-.315z"/></g><g id="XMLID_14_"><path id="XMLID_15_" class="st9" d="M617.22 167.69l1.156.316-5.36 19.684-1.156-.315z"/></g><g id="XMLID_12_"><path id="XMLID_13_" class="st9" d="M622.23 165.995l1.16.315-5.36 19.684-1.158-.315z"/></g><g id="XMLID_10_"><path id="XMLID_11_" class="st9" d="M627.217 164.395l1.158.315-5.36 19.684-1.157-.315z"/></g><g id="XMLID_8_"><path id="XMLID_9_" class="st9" d="M632.23 162.7l1.158.314-5.36 19.684-1.157-.315z"/></g><g id="XMLID_6_"><path id="XMLID_7_" class="st9" d="M637.242 160.787l1.158.316-5.41 19.877-1.16-.316z"/></g><g id="XMLID_4_"><path id="XMLID_5_" class="st9" d="M642.08 159.692l1.16.315-2.497 9.166-1.158-.315z"/></g></g></g></svg>